<svg width="61" height="60" viewBox="0 0 61 60" fill="none" xmlns="http://www.w3.org/2000/svg">
<path d="M47.738 12.257V47.431H12.564V12.257H47.738ZM47.738 7.23102H12.564C11.2322 7.23471 9.95591 7.76542 9.01416 8.70718C8.0724 9.64894 7.54169 10.9252 7.53799 12.257V47.431C7.54063 48.7636 8.07088 50.0408 9.01275 50.9834C9.95462 51.9261 11.2315 52.4573 12.564 52.461H47.738C49.0712 52.4584 50.3491 51.9276 51.2918 50.9848C52.2346 50.0421 52.7654 48.7642 52.768 47.431V12.257C52.7643 10.9245 52.233 9.64764 51.2904 8.70577C50.3478 7.7639 49.0705 7.23366 47.738 7.23102Z" fill="#FF7D0A"/>
<path d="M35.178 42.41H17.589V37.382H35.178V42.41ZM42.716 32.359H17.589V27.333H42.717L42.716 32.359ZM42.716 22.308H17.589V17.282H42.717L42.716 22.308Z" fill="#FF7D0A"/>
</svg>
