<svg width="42" height="42" viewBox="0 0 42 42" fill="none" xmlns="http://www.w3.org/2000/svg">
<path d="M26.439 12.6L21 18.039L15.561 12.6L12.6 15.561L18.039 21L12.6 26.439L15.561 29.4L21 23.961L26.439 29.4L29.4 26.439L23.961 21L29.4 15.561L26.439 12.6ZM21 0C9.387 0 0 9.387 0 21C0 32.613 9.387 42 21 42C32.613 42 42 32.613 42 21C42 9.387 32.613 0 21 0ZM21 37.8C11.739 37.8 4.2 30.261 4.2 21C4.2 11.739 11.739 4.2 21 4.2C30.261 4.2 37.8 11.739 37.8 21C37.8 30.261 30.261 37.8 21 37.8Z" fill="#AAAAAA"/>
</svg>
