<svg width="21" height="21" viewBox="0 0 21 21" fill="none" xmlns="http://www.w3.org/2000/svg">
<path d="M2.71497 14.61V17.786H5.89097L15.258 8.41903L12.082 5.24103L2.71497 14.61ZM17.715 5.96203C17.7935 5.88371 17.8558 5.79067 17.8984 5.68822C17.9409 5.58578 17.9628 5.47595 17.9628 5.36503C17.9628 5.25411 17.9409 5.14428 17.8984 5.04183C17.8558 4.93939 17.7935 4.84634 17.715 4.76803L15.733 2.78603C15.6547 2.70747 15.5616 2.64515 15.4592 2.60262C15.3567 2.5601 15.2469 2.53821 15.136 2.53821C15.025 2.53821 14.9152 2.5601 14.8128 2.60262C14.7103 2.64515 14.6173 2.70747 14.539 2.78603L12.989 4.34103L16.165 7.51203L17.715 5.96203Z" fill="#DFDFDF"/>
</svg>
