<svg width="63" height="63" viewBox="0 0 63 63" fill="none" xmlns="http://www.w3.org/2000/svg">
<path d="M31.5 15.75C36.3266 15.7342 41.0598 17.0807 45.1553 19.6347C49.2508 22.1888 52.5425 25.8467 54.652 30.188C52.529 34.5178 49.2343 38.1655 45.1421 40.7167C41.0499 43.2678 36.3243 44.6202 31.502 44.6202C26.6797 44.6202 21.9541 43.2678 17.8619 40.7167C13.7697 38.1655 10.475 34.5178 8.352 30.188C10.4612 25.8473 13.7522 22.1898 17.847 19.6358C21.9418 17.0818 26.674 15.7349 31.5 15.75ZM31.5 10.5C25.2668 10.5036 19.179 12.3835 14.029 15.895C8.87899 19.4064 4.90526 24.3868 2.625 30.188C4.90239 35.991 8.87545 40.9732 14.0261 44.485C19.1768 47.9967 25.2661 49.8751 31.5 49.8751C37.7339 49.8751 43.8232 47.9967 48.9739 44.485C54.1246 40.9732 58.0976 35.991 60.375 30.188C58.0947 24.3868 54.121 19.4064 48.971 15.895C43.821 12.3835 37.7332 10.5036 31.5 10.5ZM31.5 23.625C32.7981 23.6248 34.0671 24.0095 35.1465 24.7306C36.2259 25.4516 37.0672 26.4765 37.5641 27.6758C38.061 28.875 38.1911 30.1946 37.938 31.4678C37.6849 32.7409 37.0599 33.9104 36.1421 34.8284C35.2243 35.7463 34.0549 36.3715 32.7817 36.6248C31.5086 36.8781 30.189 36.7482 28.9897 36.2515C27.7904 35.7548 26.7653 34.9136 26.0441 33.8343C25.3229 32.755 24.938 31.4861 24.938 30.188C24.9388 28.4479 25.6304 26.7793 26.8608 25.5488C28.0913 24.3184 29.7599 23.6268 31.5 23.626V23.625ZM31.5 18.376C29.1638 18.376 26.8801 19.0688 24.9376 20.3667C22.9951 21.6646 21.4812 23.5094 20.5871 25.6677C19.6931 27.8261 19.4592 30.2011 19.915 32.4924C20.3707 34.7837 21.4957 36.8884 23.1477 38.5403C24.7996 40.1923 26.9043 41.3173 29.1956 41.773C31.4869 42.2288 33.8619 41.9949 36.0203 41.1009C38.1786 40.2068 40.0234 38.6929 41.3213 36.7504C42.6192 34.8079 43.312 32.5242 43.312 30.188C43.3075 27.0566 42.0616 24.0546 39.8474 21.8403C37.6333 19.6259 34.6314 18.3798 31.5 18.375V18.376Z" fill="#FF7D0A"/>
</svg>
