<svg width="53" height="53" viewBox="0 0 53 53" fill="none" xmlns="http://www.w3.org/2000/svg">
<path d="M36.438 6.62497C34.5481 6.63944 32.6832 7.05885 30.9691 7.85494C29.255 8.65103 27.7314 9.80531 26.501 11.24C25.2706 9.80518 23.7468 8.65083 22.0325 7.85474C20.3182 7.05864 18.4531 6.6393 16.563 6.62497C14.9636 6.6092 13.3771 6.9126 11.8964 7.51741C10.4156 8.12222 9.07038 9.01629 7.93936 10.1473C6.80835 11.2783 5.91427 12.6236 5.30946 14.1043C4.70466 15.5851 4.40126 17.1716 4.41703 18.771C4.41703 27.118 11.925 33.925 23.298 44.255L26.498 47.148L29.698 44.233C41.075 33.92 48.584 27.118 48.584 18.771C48.5998 17.1716 48.2964 15.5851 47.6916 14.1043C47.0868 12.6236 46.1927 11.2783 45.0617 10.1473C43.9307 9.01629 42.5854 8.12222 41.1047 7.51741C39.6239 6.9126 38.0374 6.6092 36.438 6.62497ZM26.717 40.965L26.496 41.186L26.275 40.965C15.768 31.447 8.83403 25.153 8.83403 18.771C8.80907 17.7492 8.99194 16.733 9.37152 15.7839C9.75111 14.8349 10.3195 13.9729 11.0422 13.2502C11.765 12.5275 12.627 11.9591 13.576 11.5795C14.525 11.1999 15.5412 11.017 16.563 11.042C18.2416 11.0502 19.8813 11.5476 21.2816 12.4733C22.6819 13.399 23.7819 14.7128 24.447 16.254H28.577C29.2349 14.7121 30.3302 13.3968 31.7274 12.4705C33.1247 11.5442 34.7627 11.0476 36.439 11.042C37.4608 11.017 38.4771 11.1999 39.4261 11.5795C40.3751 11.9591 41.2371 12.5275 41.9598 13.2502C42.6825 13.9729 43.2509 14.8349 43.6305 15.7839C44.0101 16.733 44.193 17.7492 44.168 18.771C44.167 25.153 37.233 31.447 26.717 40.965Z" fill="#FF7D0A"/>
<path d="M31.9499 21.163L33.9999 23L26.6999 29.962L18.9399 23.01L20.6999 21.163L26 26H26.6999L31.9499 21.163Z" fill="#C4C4C4"/>
<path d="M31.9499 21.163L33.9999 23L26.6999 29.962L18.9399 23.01L20.6999 21.163L26 26H26.6999L31.9499 21.163Z" fill="#FF7D0A"/>
<path d="M31.9499 21.163L33.9999 23L26.6999 29.962L18.9399 23.01L20.6999 21.163L26 26H26.6999L31.9499 21.163Z" stroke="#FF7D0A" stroke-width="3"/>
</svg>
