<svg width="53" height="53" viewBox="0 0 53 53" fill="none" xmlns="http://www.w3.org/2000/svg">
<path d="M36.438 6.62497C34.548 6.63944 32.6832 7.05885 30.969 7.85494C29.2549 8.65103 27.7313 9.80531 26.501 11.24C25.2705 9.80518 23.7468 8.65083 22.0324 7.85474C20.3181 7.05864 18.4531 6.6393 16.563 6.62497C14.9635 6.6092 13.377 6.9126 11.8963 7.51741C10.4156 8.12222 9.07032 9.01629 7.9393 10.1473C6.80829 11.2783 5.91421 12.6236 5.3094 14.1043C4.70459 15.5851 4.4012 17.1716 4.41697 18.771C4.41697 27.118 11.925 33.925 23.298 44.255L26.498 47.148L29.698 44.233C41.075 33.92 48.584 27.118 48.584 18.771C48.5997 17.1716 48.2963 15.5851 47.6915 14.1043C47.0867 12.6236 46.1926 11.2783 45.0616 10.1473C43.9306 9.01629 42.5854 8.12222 41.1046 7.51741C39.6239 6.9126 38.0374 6.6092 36.438 6.62497ZM26.717 40.965L26.496 41.186L26.275 40.965C15.768 31.447 8.83397 25.153 8.83397 18.771C8.80901 17.7492 8.99187 16.733 9.37146 15.7839C9.75105 14.8349 10.3194 13.9729 11.0422 13.2502C11.7649 12.5275 12.6269 11.9591 13.5759 11.5795C14.5249 11.1999 15.5412 11.017 16.563 11.042C18.2415 11.0502 19.8813 11.5476 21.2815 12.4733C22.6818 13.399 23.7818 14.7128 24.447 16.254H28.577C29.2349 14.7121 30.3301 13.3968 31.7274 12.4705C33.1246 11.5442 34.7626 11.0476 36.439 11.042C37.4608 11.017 38.477 11.1999 39.426 11.5795C40.375 11.9591 41.237 12.5275 41.9598 13.2502C42.6825 13.9729 43.2509 14.8349 43.6305 15.7839C44.0101 16.733 44.1929 17.7492 44.168 18.771C44.167 25.153 37.233 31.447 26.717 40.965Z" fill="#FF7D0A"/>
<path d="M21.0679 30.057L18.9862 28.2561L26.1635 21.1677L34.0437 27.9832L32.3162 29.8607L26.9325 25.1169L26.2327 25.1291L21.0679 30.057Z" fill="#C4C4C4"/>
<path d="M21.0679 30.057L18.9862 28.2561L26.1635 21.1677L34.0437 27.9832L32.3162 29.8607L26.9325 25.1169L26.2327 25.1291L21.0679 30.057Z" fill="#FF7D0A"/>
<path d="M21.0679 30.057L18.9862 28.2561L26.1635 21.1677L34.0437 27.9832L32.3162 29.8607L26.9325 25.1169L26.2327 25.1291L21.0679 30.057Z" stroke="#FF7D0A" stroke-width="3"/>
</svg>
