<svg width="20" height="25" viewBox="0 0 20 25" fill="none" xmlns="http://www.w3.org/2000/svg">
<path d="M12.541 10.6081C13.2961 10.1797 13.9243 9.55903 14.3618 8.80923C14.7993 8.05943 15.0306 7.20718 15.032 6.33907C15.0197 5.66838 14.8748 5.00677 14.6056 4.39234C14.3365 3.77791 13.9484 3.22282 13.4637 2.75907C12.979 2.29532 12.4074 1.93206 11.7817 1.69024C11.156 1.44841 10.4886 1.33281 9.81805 1.35007C9.14747 1.33281 8.48011 1.44841 7.85441 1.69024C7.22872 1.93206 6.65706 2.29532 6.17239 2.75907C5.68772 3.22282 5.29962 3.77791 5.03045 4.39234C4.76128 5.00677 4.61636 5.66838 4.60405 6.33907C4.60554 7.20718 4.83679 8.05943 5.2743 8.80923C5.71182 9.55903 6.34001 10.1797 7.09505 10.6081C5.23011 11.1178 3.5822 12.2216 2.40111 13.7522C1.22003 15.2829 0.57017 17.1568 0.550049 19.0901C0.550049 23.9681 4.95005 23.4691 6.57505 23.5801H13.005C16.075 23.5801 19.03 23.2471 19.03 19.0901C19.0221 17.1619 18.3836 15.2893 17.212 13.7578C16.0404 12.2264 14.4 11.1202 12.541 10.6081ZM5.76305 6.39507C5.77145 5.87307 5.88335 5.35792 6.09226 4.87948C6.30118 4.40103 6.60296 3.96879 6.98013 3.60781C7.35729 3.24683 7.80234 2.96429 8.28948 2.77654C8.77662 2.58879 9.29618 2.49959 9.81805 2.51407C10.3415 2.49184 10.8641 2.57573 11.3542 2.76072C11.8444 2.94571 12.2921 3.22796 12.6704 3.59049C13.0486 3.95302 13.3496 4.38833 13.5553 4.87023C13.7609 5.35213 13.8669 5.87064 13.8669 6.39457C13.8669 6.9185 13.7609 7.43703 13.5553 7.91892C13.3496 8.40082 13.0486 8.83612 12.6704 9.19865C12.2921 9.56117 11.8444 9.84343 11.3542 10.0284C10.8641 10.2134 10.3415 10.2973 9.81805 10.2751C8.77263 10.2751 7.76756 9.87157 7.01231 9.14873C6.25706 8.4259 5.80991 7.43948 5.76405 6.39507H5.76305ZM13.063 22.4721H6.63205C4.54705 22.4171 1.76605 22.6381 1.76605 19.0901C1.81955 16.9878 2.70223 14.9921 4.22155 13.5381C5.74086 12.0842 7.7735 11.2901 9.87605 11.3291C11.9786 11.2901 14.0112 12.0842 15.5306 13.5381C17.0499 14.9921 17.9326 16.9878 17.986 19.0901C17.928 21.9691 16.422 22.4691 13.062 22.4691L13.063 22.4721Z" fill="#A6A6A6" stroke="#A6A6A6"/>
</svg>
