<svg width="26" height="16" viewBox="0 0 26 16" fill="none" xmlns="http://www.w3.org/2000/svg">
<path d="M12.69 0.200012C7.842 0.200012 3.445 2.85301 0.2 7.16101C0.0701779 7.33411 0 7.54465 0 7.76102C0 7.97739 0.0701779 8.18792 0.2 8.36102C3.444 12.675 7.841 15.327 12.69 15.327C17.539 15.327 21.935 12.674 25.18 8.36601C25.3098 8.19292 25.38 7.98238 25.38 7.76601C25.38 7.54964 25.3098 7.33911 25.18 7.16602C21.936 2.85302 17.539 0.200012 12.69 0.200012ZM13.038 13.09C11.9551 13.1607 10.8764 12.8996 9.94567 12.3415C9.01497 11.7834 8.27651 10.9549 7.82877 9.96633C7.38102 8.9778 7.24527 7.87626 7.43961 6.80859C7.63395 5.74093 8.14915 4.75788 8.91651 3.99052C9.68386 3.22317 10.6669 2.70797 11.7346 2.51363C12.8022 2.31929 13.9038 2.45504 14.8923 2.90278C15.8809 3.35052 16.7094 4.08898 17.2675 5.01968C17.8256 5.95039 18.0867 7.02911 18.016 8.11201C17.9308 9.40425 17.379 10.6215 16.4632 11.5372C15.5475 12.453 14.3302 13.0048 13.038 13.09ZM12.877 10.629C12.2941 10.6664 11.7136 10.5253 11.2129 10.2245C10.7122 9.92373 10.315 9.47749 10.0743 8.94527C9.83357 8.41305 9.76074 7.82012 9.8655 7.24547C9.97026 6.67082 10.2476 6.14173 10.6607 5.72869C11.0737 5.31565 11.6028 5.03828 12.1775 4.93352C12.7521 4.82876 13.345 4.90158 13.8773 5.1423C14.4095 5.38301 14.8557 5.78018 15.1565 6.28089C15.4573 6.78161 15.5984 7.36209 15.561 7.94501C15.5173 8.64254 15.2205 9.30013 14.7263 9.79432C14.2321 10.2885 13.5745 10.5853 12.877 10.629Z" fill="#DFDFDF"/>
</svg>
