<svg width="0" height="0" class="hidden">
  <symbol  xmlns="http://www.w3.org/2000/svg" viewBox="0 0 32 32" id="arrow-up">
    <path d="M14.99 19.8V10.254H10.324L16.324 4.25403L22.324 10.254H17.657V19.801L14.99 19.8ZM8 18.667C8 20.7888 8.84285 22.8236 10.3431 24.3239C11.8434 25.8242 13.8783 26.667 16 26.667C18.1217 26.667 20.1566 25.8242 21.6569 24.3239C23.1571 22.8236 24 20.7888 24 18.667H21.333C21.333 20.0814 20.7711 21.4379 19.771 22.438C18.7709 23.4382 17.4144 24 16 24C14.5856 24 13.2291 23.4382 12.229 22.438C11.2289 21.4379 10.667 20.0814 10.667 18.667H8Z" ></path>
  </symbol>
  <symbol  xmlns="http://www.w3.org/2000/svg" viewBox="0 0 32 32" id="arrow-down">
    <path d="M14.667 6.66699V14.12H10L16 20.12L22 14.12H17.333V6.66699H14.667ZM8 18.667C8 20.7887 8.84285 22.8236 10.3431 24.3238C11.8434 25.8241 13.8783 26.667 16 26.667C18.1217 26.667 20.1566 25.8241 21.6569 24.3238C23.1571 22.8236 24 20.7887 24 18.667H21.333C21.333 20.0814 20.7711 21.4379 19.771 22.438C18.7709 23.4381 17.4144 24 16 24C14.5856 24 13.2291 23.4381 12.229 22.438C11.2289 21.4379 10.667 20.0814 10.667 18.667H8Z" ></path>
  </symbol>
  <symbol  xmlns="http://www.w3.org/2000/svg" viewBox="0 0 61 60" id="article">
    <path d="M47.738 12.257V47.431H12.564V12.257H47.738ZM47.738 7.23102H12.564C11.2322 7.23471 9.95591 7.76542 9.01416 8.70718C8.0724 9.64894 7.54169 10.9252 7.53799 12.257V47.431C7.54063 48.7636 8.07088 50.0408 9.01275 50.9834C9.95462 51.9261 11.2315 52.4573 12.564 52.461H47.738C49.0712 52.4584 50.3491 51.9276 51.2918 50.9848C52.2346 50.0421 52.7654 48.7642 52.768 47.431V12.257C52.7643 10.9245 52.233 9.64764 51.2904 8.70577C50.3478 7.7639 49.0705 7.23366 47.738 7.23102Z" ></path>
    <path d="M35.178 42.41H17.589V37.382H35.178V42.41ZM42.716 32.359H17.589V27.333H42.717L42.716 32.359ZM42.716 22.308H17.589V17.282H42.717L42.716 22.308Z" ></path>
  </symbol>
  <symbol  xmlns="http://www.w3.org/2000/svg" viewBox="0 0 130 130" id="basket-lg">
    <path d="M32.5 102.917C32.5 108.875 37.375 113.75 43.3333 113.75H86.6667C92.625 113.75 97.5 108.875 97.5 102.917V37.9167H32.5V102.917ZM45.825 64.35L53.4625 56.7125L65 68.1958L76.4833 56.7125L84.1208 64.35L72.6375 75.8333L84.1208 87.3167L76.4833 94.9542L65 83.4708L53.5167 94.9542L45.8792 87.3167L57.3625 75.8333L45.825 64.35ZM83.9583 21.6667L78.5417 16.25H51.4583L46.0416 21.6667H27.0833V32.5H102.917V21.6667H83.9583Z" ></path>
  </symbol>
  <symbol  xmlns="http://www.w3.org/2000/svg" viewBox="0 0 30 30" id="busket">
    <path d="M7.5 23.75C7.5 25.125 8.625 26.25 10 26.25H20C21.375 26.25 22.5 25.125 22.5 23.75V8.75H7.5V23.75ZM10.575 14.85L12.3375 13.0875L15 15.7375L17.65 13.0875L19.4125 14.85L16.7625 17.5L19.4125 20.15L17.65 21.9125L15 19.2625L12.35 21.9125L10.5875 20.15L13.2375 17.5L10.575 14.85ZM19.375 5L18.125 3.75H11.875L10.625 5H6.25V7.5H23.75V5H19.375Z" ></path>
  </symbol>
  <symbol  xmlns="http://www.w3.org/2000/svg" viewBox="0 0 42 42" id="cross">
    <path d="M26.439 12.6L21 18.039L15.561 12.6L12.6 15.561L18.039 21L12.6 26.439L15.561 29.4L21 23.961L26.439 29.4L29.4 26.439L23.961 21L29.4 15.561L26.439 12.6ZM21 0C9.387 0 0 9.387 0 21C0 32.613 9.387 42 21 42C32.613 42 42 32.613 42 21C42 9.387 32.613 0 21 0ZM21 37.8C11.739 37.8 4.2 30.261 4.2 21C4.2 11.739 11.739 4.2 21 4.2C30.261 4.2 37.8 11.739 37.8 21C37.8 30.261 30.261 37.8 21 37.8Z" ></path>
  </symbol>
  <symbol  xmlns="http://www.w3.org/2000/svg" viewBox="0 0 63 63" id="eye">
    <path d="M31.5 15.75C36.3266 15.7342 41.0598 17.0807 45.1553 19.6347C49.2508 22.1888 52.5425 25.8467 54.652 30.188C52.529 34.5178 49.2343 38.1655 45.1421 40.7167C41.0499 43.2678 36.3243 44.6202 31.502 44.6202C26.6797 44.6202 21.9541 43.2678 17.8619 40.7167C13.7697 38.1655 10.475 34.5178 8.352 30.188C10.4612 25.8473 13.7522 22.1898 17.847 19.6358C21.9418 17.0818 26.674 15.7349 31.5 15.75ZM31.5 10.5C25.2668 10.5036 19.179 12.3835 14.029 15.895C8.87899 19.4064 4.90526 24.3868 2.625 30.188C4.90239 35.991 8.87545 40.9732 14.0261 44.485C19.1768 47.9967 25.2661 49.8751 31.5 49.8751C37.7339 49.8751 43.8232 47.9967 48.9739 44.485C54.1246 40.9732 58.0976 35.991 60.375 30.188C58.0947 24.3868 54.121 19.4064 48.971 15.895C43.821 12.3835 37.7332 10.5036 31.5 10.5ZM31.5 23.625C32.7981 23.6248 34.0671 24.0095 35.1465 24.7306C36.2259 25.4516 37.0672 26.4765 37.5641 27.6758C38.061 28.875 38.1911 30.1946 37.938 31.4678C37.6849 32.7409 37.0599 33.9104 36.1421 34.8284C35.2243 35.7463 34.0549 36.3715 32.7817 36.6248C31.5086 36.8781 30.189 36.7482 28.9897 36.2515C27.7904 35.7548 26.7653 34.9136 26.0441 33.8343C25.3229 32.755 24.938 31.4861 24.938 30.188C24.9388 28.4479 25.6304 26.7793 26.8608 25.5488C28.0913 24.3184 29.7599 23.6268 31.5 23.626V23.625ZM31.5 18.376C29.1638 18.376 26.8801 19.0688 24.9376 20.3667C22.9951 21.6646 21.4812 23.5094 20.5871 25.6677C19.6931 27.8261 19.4592 30.2011 19.915 32.4924C20.3707 34.7837 21.4957 36.8884 23.1477 38.5403C24.7996 40.1923 26.9043 41.3173 29.1956 41.773C31.4869 42.2288 33.8619 41.9949 36.0203 41.1009C38.1786 40.2068 40.0234 38.6929 41.3213 36.7504C42.6192 34.8079 43.312 32.5242 43.312 30.188C43.3075 27.0566 42.0616 24.0546 39.8474 21.8403C37.6333 19.6259 34.6314 18.3798 31.5 18.375V18.376Z" ></path>
  </symbol>
  <symbol  xmlns="http://www.w3.org/2000/svg" viewBox="0 0 24 16" id="eye2">
    <path d="M12 2.43701C13.8387 2.4309 15.6419 2.9438 17.2021 3.91674C18.7624 4.88968 20.0164 6.28317 20.82 7.93701C20.0115 9.58701 18.7563 10.9771 17.1972 11.9494C15.638 12.9216 13.8374 13.4371 12 13.4371C10.1626 13.4371 8.36195 12.9216 6.80282 11.9494C5.24368 10.9771 3.98853 9.58701 3.18 7.93701C3.98362 6.28317 5.23763 4.88968 6.79788 3.91674C8.35813 2.9438 10.1613 2.4309 12 2.43701ZM12 0.437012C9.62547 0.438426 7.30636 1.15456 5.34446 2.49222C3.38256 3.82988 1.86874 5.72711 1 7.93701C1.86767 10.1476 3.38125 12.0455 5.3434 13.3832C7.30555 14.7209 9.62523 15.4364 12 15.4364C14.3748 15.4364 16.6945 14.7209 18.6566 13.3832C20.6187 12.0455 22.1323 10.1476 23 7.93701C22.1313 5.72711 20.6174 3.82988 18.6555 2.49222C16.6936 1.15456 14.3745 0.438426 12 0.437012Z" ></path>
    <path d="M12 10C13.1046 10 14 9.10457 14 8C14 6.89543 13.1046 6 12 6C10.8954 6 10 6.89543 10 8C10 9.10457 10.8954 10 12 10Z" ></path>
  </symbol>
  <symbol  xmlns="http://www.w3.org/2000/svg" viewBox="0 0 53 53" id="heart-down">
    <path d="M36.438 6.62497C34.5481 6.63944 32.6832 7.05885 30.9691 7.85494C29.255 8.65103 27.7314 9.80531 26.501 11.24C25.2706 9.80518 23.7468 8.65083 22.0325 7.85474C20.3182 7.05864 18.4531 6.6393 16.563 6.62497C14.9636 6.6092 13.3771 6.9126 11.8964 7.51741C10.4156 8.12222 9.07038 9.01629 7.93936 10.1473C6.80835 11.2783 5.91427 12.6236 5.30946 14.1043C4.70466 15.5851 4.40126 17.1716 4.41703 18.771C4.41703 27.118 11.925 33.925 23.298 44.255L26.498 47.148L29.698 44.233C41.075 33.92 48.584 27.118 48.584 18.771C48.5998 17.1716 48.2964 15.5851 47.6916 14.1043C47.0868 12.6236 46.1927 11.2783 45.0617 10.1473C43.9307 9.01629 42.5854 8.12222 41.1047 7.51741C39.6239 6.9126 38.0374 6.6092 36.438 6.62497ZM26.717 40.965L26.496 41.186L26.275 40.965C15.768 31.447 8.83403 25.153 8.83403 18.771C8.80907 17.7492 8.99194 16.733 9.37152 15.7839C9.75111 14.8349 10.3195 13.9729 11.0422 13.2502C11.765 12.5275 12.627 11.9591 13.576 11.5795C14.525 11.1999 15.5412 11.017 16.563 11.042C18.2416 11.0502 19.8813 11.5476 21.2816 12.4733C22.6819 13.399 23.7819 14.7128 24.447 16.254H28.577C29.2349 14.7121 30.3302 13.3968 31.7274 12.4705C33.1247 11.5442 34.7627 11.0476 36.439 11.042C37.4608 11.017 38.4771 11.1999 39.4261 11.5795C40.3751 11.9591 41.2371 12.5275 41.9598 13.2502C42.6825 13.9729 43.2509 14.8349 43.6305 15.7839C44.0101 16.733 44.193 17.7492 44.168 18.771C44.167 25.153 37.233 31.447 26.717 40.965Z" ></path>
    <path d="M31.9499 21.163L33.9999 23L26.6999 29.962L18.9399 23.01L20.6999 21.163L26 26H26.6999L31.9499 21.163Z" ></path>
    <path d="M31.9499 21.163L33.9999 23L26.6999 29.962L18.9399 23.01L20.6999 21.163L26 26H26.6999L31.9499 21.163Z" ></path>
    <path d="M31.9499 21.163L33.9999 23L26.6999 29.962L18.9399 23.01L20.6999 21.163L26 26H26.6999L31.9499 21.163Z" stroke="#FF7D0A" stroke-width="3"></path>
  </symbol>
  <symbol  xmlns="http://www.w3.org/2000/svg" viewBox="0 0 53 53" id="heart-up">
    <path d="M36.438 6.62497C34.548 6.63944 32.6832 7.05885 30.969 7.85494C29.2549 8.65103 27.7313 9.80531 26.501 11.24C25.2705 9.80518 23.7468 8.65083 22.0324 7.85474C20.3181 7.05864 18.4531 6.6393 16.563 6.62497C14.9635 6.6092 13.377 6.9126 11.8963 7.51741C10.4156 8.12222 9.07032 9.01629 7.9393 10.1473C6.80829 11.2783 5.91421 12.6236 5.3094 14.1043C4.70459 15.5851 4.4012 17.1716 4.41697 18.771C4.41697 27.118 11.925 33.925 23.298 44.255L26.498 47.148L29.698 44.233C41.075 33.92 48.584 27.118 48.584 18.771C48.5997 17.1716 48.2963 15.5851 47.6915 14.1043C47.0867 12.6236 46.1926 11.2783 45.0616 10.1473C43.9306 9.01629 42.5854 8.12222 41.1046 7.51741C39.6239 6.9126 38.0374 6.6092 36.438 6.62497ZM26.717 40.965L26.496 41.186L26.275 40.965C15.768 31.447 8.83397 25.153 8.83397 18.771C8.80901 17.7492 8.99187 16.733 9.37146 15.7839C9.75105 14.8349 10.3194 13.9729 11.0422 13.2502C11.7649 12.5275 12.6269 11.9591 13.5759 11.5795C14.5249 11.1999 15.5412 11.017 16.563 11.042C18.2415 11.0502 19.8813 11.5476 21.2815 12.4733C22.6818 13.399 23.7818 14.7128 24.447 16.254H28.577C29.2349 14.7121 30.3301 13.3968 31.7274 12.4705C33.1246 11.5442 34.7626 11.0476 36.439 11.042C37.4608 11.017 38.477 11.1999 39.426 11.5795C40.375 11.9591 41.237 12.5275 41.9598 13.2502C42.6825 13.9729 43.2509 14.8349 43.6305 15.7839C44.0101 16.733 44.1929 17.7492 44.168 18.771C44.167 25.153 37.233 31.447 26.717 40.965Z" ></path>
    <path d="M21.0679 30.057L18.9862 28.2561L26.1635 21.1677L34.0437 27.9832L32.3162 29.8607L26.9325 25.1169L26.2327 25.1291L21.0679 30.057Z" ></path>
    <path d="M21.0679 30.057L18.9862 28.2561L26.1635 21.1677L34.0437 27.9832L32.3162 29.8607L26.9325 25.1169L26.2327 25.1291L21.0679 30.057Z" ></path>
    <path d="M21.0679 30.057L18.9862 28.2561L26.1635 21.1677L34.0437 27.9832L32.3162 29.8607L26.9325 25.1169L26.2327 25.1291L21.0679 30.057Z" stroke="#FF7D0A" stroke-width="3"></path>
  </symbol>
  <symbol  xmlns="http://www.w3.org/2000/svg" viewBox="0 0 24 24" id="house">
    <path d="M12 3L1 11.4L2.21 12.99L4 11.62V21H20V11.62L21.79 12.98L23 11.4L12 3ZM18 19H6V10.1L12 5.52L18 10.1V19ZM9 14C9 14.1978 8.94135 14.3911 8.83147 14.5556C8.72159 14.72 8.56541 14.8482 8.38268 14.9239C8.19996 14.9996 7.99889 15.0194 7.80491 14.9808C7.61093 14.9422 7.43275 14.847 7.29289 14.7071C7.15304 14.5673 7.0578 14.3891 7.01921 14.1951C6.98063 14.0011 7.00043 13.8 7.07612 13.6173C7.15181 13.4346 7.27998 13.2784 7.44443 13.1685C7.60888 13.0586 7.80222 13 8 13C8.26522 13 8.51957 13.1054 8.70711 13.2929C8.89464 13.4804 9 13.7348 9 14ZM12 13C12.1978 13 12.3911 13.0586 12.5556 13.1685C12.72 13.2784 12.8482 13.4346 12.9239 13.6173C12.9996 13.8 13.0194 14.0011 12.9808 14.1951C12.9422 14.3891 12.847 14.5673 12.7071 14.7071C12.5673 14.847 12.3891 14.9422 12.1951 14.9808C12.0011 15.0194 11.8 14.9996 11.6173 14.9239C11.4346 14.8482 11.2784 14.72 11.1685 14.5556C11.0586 14.3911 11 14.1978 11 14C11 13.7348 11.1054 13.4804 11.2929 13.2929C11.4804 13.1054 11.7348 13 12 13ZM15 14C15 13.8022 15.0586 13.6089 15.1685 13.4444C15.2784 13.28 15.4346 13.1518 15.6173 13.0761C15.8 13.0004 16.0011 12.9806 16.1951 13.0192C16.3891 13.0578 16.5673 13.153 16.7071 13.2929C16.847 13.4327 16.9422 13.6109 16.9808 13.8049C17.0194 13.9989 16.9996 14.2 16.9239 14.3827C16.8482 14.5654 16.72 14.7216 16.5556 14.8315C16.3911 14.9414 16.1978 15 16 15C15.7348 15 15.4804 14.8946 15.2929 14.7071C15.1054 14.5196 15 14.2652 15 14Z" ></path>
  </symbol>
  <symbol  xmlns="http://www.w3.org/2000/svg" viewBox="0 0 24 24" id="label">
    <path d="M21.41 11.41L12.58 2.58C12.205 2.20808 11.6981 1.99958 11.17 2H3.99999C3.47005 2.00158 2.96226 2.21281 2.58753 2.58754C2.2128 2.96227 2.00158 3.47005 1.99999 4V11.17C1.99922 11.4325 2.05103 11.6925 2.15236 11.9347C2.25369 12.1769 2.40249 12.3963 2.58999 12.58L11.42 21.41C11.6057 21.596 11.8263 21.7435 12.0691 21.8441C12.3119 21.9448 12.5722 21.9966 12.835 21.9966C13.0978 21.9966 13.3581 21.9448 13.6009 21.8441C13.8437 21.7435 14.0642 21.596 14.25 21.41L21.42 14.24C21.6053 14.0536 21.752 13.8325 21.8518 13.5893C21.9516 13.3462 22.0025 13.0858 22.0016 12.8229C22.0006 12.5601 21.9479 12.3 21.8464 12.0576C21.7449 11.8151 21.5966 11.5951 21.41 11.41ZM12.83 20L3.99999 11.17V4H11.17L20 12.83L12.83 20Z" ></path>
    <path d="M6.5 8C7.32843 8 8 7.32843 8 6.5C8 5.67157 7.32843 5 6.5 5C5.67157 5 5 5.67157 5 6.5C5 7.32843 5.67157 8 6.5 8Z" ></path>
  </symbol>
  <symbol  xmlns="http://www.w3.org/2000/svg" viewBox="0 0 63 63" id="logo">
    <path d="M18.375 55.125H7.875V21L42 7.875V26.25H18.375V55.125ZM49.875 26.25C48.4838 26.254 47.1508 26.8084 46.1671 27.7921C45.1833 28.7758 44.629 30.1088 44.625 31.5H23.625V55.125H36.75V42H42V55.125H55.125V31.5C55.121 30.1088 54.5667 28.7758 53.5829 27.7921C52.5992 26.8084 51.2662 26.254 49.875 26.25Z" ></path>
  </symbol>
  <symbol  xmlns="http://www.w3.org/2000/svg" viewBox="0 0 25 25" id="magnifier">
    <path d="M23.739 22.825L17.77 16.856C19.3966 14.8666 20.1964 12.3281 20.0039 9.76557C19.8113 7.20304 18.6412 4.81254 16.7356 3.08853C14.83 1.36452 12.3346 0.438901 9.76565 0.503133C7.1967 0.567364 4.75071 1.61653 2.93362 3.43362C1.11653 5.25071 0.0673644 7.6967 0.00313259 10.2656C-0.0610992 12.8346 0.864519 15.33 2.58853 17.2356C4.31254 19.1412 6.70304 20.3113 9.26557 20.5039C11.8281 20.6964 14.3666 19.8966 16.356 18.27L22.325 24.239C22.4173 24.3345 22.5276 24.4107 22.6496 24.4631C22.7716 24.5155 22.9028 24.5431 23.0356 24.5443C23.1684 24.5454 23.3001 24.5201 23.423 24.4698C23.5459 24.4195 23.6575 24.3453 23.7514 24.2514C23.8453 24.1575 23.9195 24.0459 23.9698 23.923C24.0201 23.8001 24.0454 23.6684 24.0443 23.5356C24.0431 23.4028 24.0155 23.2716 23.9631 23.1496C23.9107 23.0276 23.8345 22.9173 23.739 22.825ZM10.032 18.532C8.44976 18.532 6.90304 18.0628 5.58745 17.1838C4.27185 16.3047 3.24647 15.0553 2.64097 13.5935C2.03547 12.1317 1.87704 10.5231 2.18573 8.97129C2.49441 7.41944 3.25633 5.99397 4.37515 4.87515C5.49397 3.75633 6.91944 2.99441 8.47129 2.68573C10.0231 2.37704 11.6317 2.53547 13.0935 3.14097C14.5553 3.74647 15.8047 4.77185 16.6838 6.08745C17.5628 7.40304 18.032 8.94976 18.032 10.532C18.032 12.6537 17.1892 14.6886 15.6889 16.1889C14.1886 17.6892 12.1537 18.532 10.032 18.532Z" ></path>
  </symbol>
  <symbol  xmlns="http://www.w3.org/2000/svg" viewBox="0 0 24 24" id="notifications">
    <path d="M12 22C12.5299 21.9984 13.0377 21.7872 13.4125 21.4125C13.7872 21.0377 13.9984 20.5299 14 20H10C10.0016 20.5299 10.2128 21.0377 10.5875 21.4125C10.9623 21.7872 11.4701 21.9984 12 22ZM18 16V11C18 7.93 16.37 5.36 13.5 4.68V4C13.5 3.60218 13.342 3.22064 13.0607 2.93934C12.7794 2.65804 12.3978 2.5 12 2.5C11.6022 2.5 11.2206 2.65804 10.9393 2.93934C10.658 3.22064 10.5 3.60218 10.5 4V4.68C7.64 5.36 6 7.92 6 11V16L4 18V19H20V18L18 16ZM16 17H8V11C8 8.52 9.51 6.5 12 6.5C14.49 6.5 16 8.52 16 11V17Z" ></path>
  </symbol>
  <symbol  xmlns="http://www.w3.org/2000/svg" viewBox="0 0 20 25" id="person">
    <path d="M12.541 10.6081C13.2961 10.1797 13.9243 9.55903 14.3618 8.80923C14.7993 8.05943 15.0306 7.20718 15.032 6.33907C15.0197 5.66838 14.8748 5.00677 14.6056 4.39234C14.3365 3.77791 13.9484 3.22282 13.4637 2.75907C12.979 2.29532 12.4074 1.93206 11.7817 1.69024C11.156 1.44841 10.4886 1.33281 9.81805 1.35007C9.14747 1.33281 8.48011 1.44841 7.85441 1.69024C7.22872 1.93206 6.65706 2.29532 6.17239 2.75907C5.68772 3.22282 5.29962 3.77791 5.03045 4.39234C4.76128 5.00677 4.61636 5.66838 4.60405 6.33907C4.60554 7.20718 4.83679 8.05943 5.2743 8.80923C5.71182 9.55903 6.34001 10.1797 7.09505 10.6081C5.23011 11.1178 3.5822 12.2216 2.40111 13.7522C1.22003 15.2829 0.57017 17.1568 0.550049 19.0901C0.550049 23.9681 4.95005 23.4691 6.57505 23.5801H13.005C16.075 23.5801 19.03 23.2471 19.03 19.0901C19.0221 17.1619 18.3836 15.2893 17.212 13.7578C16.0404 12.2264 14.4 11.1202 12.541 10.6081ZM5.76305 6.39507C5.77145 5.87307 5.88335 5.35792 6.09226 4.87948C6.30118 4.40103 6.60296 3.96879 6.98013 3.60781C7.35729 3.24683 7.80234 2.96429 8.28948 2.77654C8.77662 2.58879 9.29618 2.49959 9.81805 2.51407C10.3415 2.49184 10.8641 2.57573 11.3542 2.76072C11.8444 2.94571 12.2921 3.22796 12.6704 3.59049C13.0486 3.95302 13.3496 4.38833 13.5553 4.87023C13.7609 5.35213 13.8669 5.87064 13.8669 6.39457C13.8669 6.9185 13.7609 7.43703 13.5553 7.91892C13.3496 8.40082 13.0486 8.83612 12.6704 9.19865C12.2921 9.56117 11.8444 9.84343 11.3542 10.0284C10.8641 10.2134 10.3415 10.2973 9.81805 10.2751C8.77263 10.2751 7.76756 9.87157 7.01231 9.14873C6.25706 8.4259 5.80991 7.43948 5.76405 6.39507H5.76305ZM13.063 22.4721H6.63205C4.54705 22.4171 1.76605 22.6381 1.76605 19.0901C1.81955 16.9878 2.70223 14.9921 4.22155 13.5381C5.74086 12.0842 7.7735 11.2901 9.87605 11.3291C11.9786 11.2901 14.0112 12.0842 15.5306 13.5381C17.0499 14.9921 17.9326 16.9878 17.986 19.0901C17.928 21.9691 16.422 22.4691 13.062 22.4691L13.063 22.4721Z"></path>
  </symbol>
</svg>